<svg width="32" height="32" viewBox="0 0 32 32" fill="none" xmlns="http://www.w3.org/2000/svg">
<path d="M16.0001 2.66699C8.77208 2.66699 2.66675 8.77233 2.66675 16.0003C2.66675 23.2283 8.77208 29.3337 16.0001 29.3337C23.2281 29.3337 29.3334 23.2283 29.3334 16.0003C29.3334 8.77233 23.2281 2.66699 16.0001 2.66699ZM16.0001 9.33366C18.3027 9.33366 20.0001 11.0297 20.0001 13.3337C20.0001 15.6377 18.3027 17.3337 16.0001 17.3337C13.6987 17.3337 12.0001 15.6377 12.0001 13.3337C12.0001 11.0297 13.6987 9.33366 16.0001 9.33366ZM9.19208 22.363C10.3881 20.603 12.3827 19.4297 14.6667 19.4297H17.3334C19.6187 19.4297 21.6121 20.603 22.8081 22.363C21.1041 24.187 18.6867 25.3337 16.0001 25.3337C13.3134 25.3337 10.8961 24.187 9.19208 22.363Z" fill="black"/>
</svg>
